<?xml version="1.0" standalone="no"?>
<!DOCTYPE svg PUBLIC "-//W3C//DTD SVG 20010904//EN"
 "http://www.w3.org/TR/2001/REC-SVG-20010904/DTD/svg10.dtd">
<svg version="1.0" xmlns="http://www.w3.org/2000/svg"
 width="250.000000pt" height="250.000000pt" viewBox="0 0 250.000000 250.000000"
 preserveAspectRatio="xMidYMid meet">
<metadata>
Created by potrace 1.11, written by Peter Selinger 2001-2013
</metadata>
<g transform="translate(0.000000,250.000000) scale(0.100000,-0.100000)"
fill="#000000" stroke="none">
<path d="M698 2336 c-43 -13 -123 -46 -179 -74 l-101 -52 -209 0 -209 0 0
-895 c0 -847 1 -894 18 -888 9 3 72 32 140 65 108 52 128 59 162 53 22 -4 42
-10 44 -14 3 -4 -13 -72 -35 -152 -21 -79 -39 -152 -39 -161 0 -17 31 -18 530
-18 l530 0 -6 28 c-3 15 -6 54 -7 87 -2 55 0 60 20 63 22 3 26 -7 49 -141 6
-36 7 -37 50 -37 51 0 50 -5 25 108 l-18 82 24 6 c13 4 27 3 31 0 4 -4 16 -49
27 -99 l20 -92 41 -3 41 -3 -22 103 c-13 57 -22 103 -22 104 1 1 14 4 29 8 31
7 27 14 58 -121 l22 -93 123 0 123 0 -145 317 c-79 175 -147 324 -150 332 -5
12 16 13 133 7 269 -15 367 -40 442 -114 29 -30 149 -205 240 -352 l22 -35 0
928 0 927 -615 0 -615 0 -47 34 c-155 110 -350 144 -525 92z m286 -41 c104
-22 188 -66 255 -133 90 -89 142 -213 140 -333 0 -61 3 -63 -65 54 -25 44 -48
77 -50 74 -13 -13 12 -122 37 -160 15 -23 31 -54 34 -69 l7 -28 -68 0 c-110 0
-252 -25 -286 -50 -16 -12 -52 -27 -81 -35 -47 -12 -54 -12 -92 8 -33 17 -56
21 -132 19 -50 -1 -110 -6 -132 -11 -36 -8 -41 -6 -47 11 -3 11 1 27 10 37 10
11 20 50 26 102 12 100 48 182 93 210 42 25 110 34 166 21 38 -9 49 -8 64 5
28 26 20 40 -40 70 -78 38 -189 44 -283 14 -35 -11 -66 -18 -68 -16 -7 7 61
66 100 86 47 24 56 39 24 39 -42 0 -30 15 33 44 121 54 232 67 355 41z m-426
-297 c-24 -24 -54 -65 -67 -93 -13 -27 -31 -59 -41 -70 -26 -28 -42 -107 -38
-187 3 -68 -11 -103 -32 -82 -11 11 -30 130 -30 197 0 33 -7 58 -21 78 -22 31
-18 49 10 49 18 0 70 33 145 94 28 22 90 52 114 56 2 0 -16 -19 -40 -42z m742
-338 c0 -5 -9 -10 -20 -10 -11 0 -20 5 -20 10 0 6 9 10 20 10 11 0 20 -4 20
-10z m-72 -27 c5 -18 -19 -16 -43 3 -19 15 -19 15 9 12 16 -2 31 -9 34 -15z
m125 0 c3 -10 8 -35 12 -56 8 -50 30 -43 30 11 0 49 12 64 31 38 18 -26 18
-87 -2 -156 -8 -30 -21 -75 -28 -100 -7 -25 -18 -44 -24 -43 -22 5 -32 -39
-35 -149 -2 -101 -5 -119 -30 -170 -17 -34 -50 -77 -84 -108 -46 -43 -60 -50
-83 -45 -25 5 -26 4 -22 -23 2 -18 -4 -42 -17 -63 -12 -19 -21 -44 -21 -56 0
-13 -5 -23 -11 -23 -17 0 -95 57 -123 90 -24 29 -25 37 -23 125 2 89 3 93 19
78 17 -15 18 -14 18 16 0 25 -5 34 -27 42 -27 10 -27 11 -9 25 11 8 39 14 63
14 24 0 71 9 105 21 63 21 88 20 88 -5 0 -8 5 -27 11 -43 10 -27 11 -27 25 -9
8 11 14 34 14 50 0 17 7 40 15 50 20 27 20 120 -1 140 -8 9 -20 16 -25 16 -5
0 -34 23 -64 50 -65 59 -108 68 -103 23 2 -21 -4 -32 -31 -50 -41 -28 -76 -29
-118 -3 l-32 19 0 101 c0 75 4 103 15 115 24 24 43 18 66 -20 22 -39 53 -44
52 -9 0 18 5 20 52 16 29 -2 67 1 85 7 26 9 35 8 49 -4 9 -8 24 -15 33 -15 23
0 21 -22 -4 -54 -16 -20 -19 -30 -10 -39 8 -8 17 -4 36 13 27 25 45 76 45 127
0 20 8 40 22 53 27 25 35 25 41 3z m-181 -33 c40 -24 32 -26 -21 -4 -32 13
-44 13 -63 3 -21 -11 -22 -11 -9 4 18 23 53 21 93 -3z m-452 -30 c12 -8 10
-10 -10 -10 -14 0 -38 -8 -55 -18 -33 -20 -65 -34 -65 -28 0 7 93 66 104 66 6
0 18 -5 26 -10z m-230 -9 c0 -10 -30 -24 -37 -17 -3 3 -2 9 2 15 8 13 35 15
35 2z m75 -18 c-20 -18 -30 -22 -33 -13 -5 15 25 40 47 40 11 -1 7 -9 -14 -27z
m-115 -117 c0 -16 -28 15 -41 45 -10 26 -10 32 2 39 10 7 17 -1 26 -33 7 -23
13 -46 13 -51z m334 70 c-3 -9 3 -20 15 -28 29 -18 27 -29 -14 -78 -19 -23
-35 -49 -35 -58 -1 -20 -72 -72 -99 -72 -10 0 -33 16 -50 35 -36 41 -41 61
-11 45 29 -15 41 17 14 36 -32 23 -64 56 -64 65 0 16 30 22 45 9 13 -11 21 -8
46 16 23 22 43 30 87 35 31 3 60 7 64 8 4 0 5 -5 2 -13z m1632 -129 c2 -2 1
-18 -2 -35 -6 -30 -8 -31 -27 -17 -43 30 -133 10 -157 -34 -17 -33 -11 -71 15
-97 23 -23 33 -25 85 -22 33 1 60 2 60 1 0 -1 -4 -13 -10 -27 -9 -25 -14 -26
-80 -26 -113 0 -170 36 -170 108 0 69 52 124 139 149 40 11 136 11 147 0z
m-1577 -56 c1 -11 -2 -11 -14 -1 -16 13 -20 42 -8 54 8 7 20 -23 22 -53z m819
19 c-33 -66 -21 -77 40 -33 36 26 51 43 48 56 -4 15 4 17 67 17 l70 0 -44 -30
c-24 -16 -59 -43 -78 -58 l-34 -29 42 -61 c23 -34 46 -62 51 -62 6 0 10 -4 10
-10 0 -13 -71 -13 -103 -1 -13 5 -42 33 -63 62 l-38 53 -12 -45 c-6 -24 -7
-48 -3 -54 19 -20 6 -25 -63 -25 l-71 0 22 23 c30 33 77 203 60 223 -10 12 -2
14 54 14 l64 0 -19 -40z m482 33 c-1 -41 -11 -48 -67 -44 -39 2 -58 -1 -64
-10 -19 -30 -9 -39 37 -39 38 0 45 -3 40 -16 -3 -9 -6 -21 -6 -27 0 -8 -16
-11 -48 -9 -48 4 -48 4 -60 -34 -7 -25 -8 -42 -2 -48 20 -20 8 -26 -51 -26
-45 0 -60 3 -56 13 2 7 17 57 32 112 21 77 24 104 16 117 -10 17 -3 18 109 18
66 0 120 -3 120 -7z m-1005 -82 c23 -21 48 -41 56 -44 30 -12 -16 -27 -86 -27
-88 0 -195 -16 -258 -36 -74 -24 -88 -12 -41 36 l39 40 68 -6 c62 -6 71 -5 90
15 32 31 71 60 81 61 5 0 28 -17 51 -39z m-440 -140 c9 -56 61 -161 80 -161 8
0 15 7 15 15 0 8 4 15 9 15 11 0 45 -89 37 -97 -12 -13 -97 30 -127 64 -41 48
-80 132 -73 158 17 56 50 60 59 6z m376 0 c-27 -17 -142 -34 -153 -23 -7 7 1
13 28 17 22 4 44 8 49 10 6 2 28 4 50 4 28 0 36 -2 26 -8z m335 -219 c11 -57
-3 -242 -24 -314 -20 -71 -14 -90 13 -38 22 43 62 199 70 275 15 138 44 59 95
-259 12 -71 18 -132 13 -137 -4 -4 -78 -15 -163 -23 -85 -9 -174 -19 -197 -23
-38 -5 -43 -3 -43 14 0 21 -16 69 -44 135 -15 35 -15 37 1 31 10 -3 51 -27 91
-53 39 -27 75 -44 78 -39 3 6 -16 32 -44 60 -37 37 -45 49 -31 49 11 0 19 -8
20 -17 1 -17 2 -17 6 -1 2 9 13 20 24 23 15 5 19 16 19 50 0 24 -5 56 -10 71
-10 25 -13 26 -60 21 l-49 -6 68 64 c41 40 81 89 101 126 30 57 34 61 46 44 8
-10 17 -34 20 -53z m-602 -187 c63 -33 64 -34 35 -40 -46 -10 -57 -28 -52 -82
8 -67 18 -76 75 -70 52 7 53 6 37 -25 -16 -30 -29 -78 -21 -78 4 0 21 21 37
45 28 41 82 91 90 83 5 -5 -61 -178 -72 -189 -5 -5 -79 -22 -164 -38 -118 -22
-157 -26 -166 -17 -17 15 -37 215 -28 282 7 62 28 76 46 32 36 -86 166 -248
199 -248 16 0 13 5 -42 77 -81 108 -134 247 -122 324 l7 39 38 -31 c21 -16 67
-45 103 -64z m266 -326 c0 -10 -2 -19 -4 -19 -2 0 -11 -3 -20 -6 -13 -5 -13
-1 -3 25 12 32 27 32 27 0z"/>
<path d="M1273 593 c-18 -7 -16 -23 2 -23 8 0 15 7 15 15 0 8 -1 15 -2 14 -2
0 -9 -3 -15 -6z"/>
</g>
</svg>
